<svg id="Calque_8" data-name="Calque 8" xmlns="http://www.w3.org/2000/svg" viewBox="0 0 469.44 469.44">
    <defs>
        <style>
            .logo-capture {
                fill: #db0b75;
            }
        </style>
    </defs>
    <path class="logo-capture logo-module"
        d="M484.19,281.37l-141.22,7a114.16,114.16,0,0,0,3.9-11.63l116-128a227.82,227.82,0,0,1,21.28,132.7Zm0,0"
        transform="translate(-16.99 -15.68)" />
    <path class="logo-capture logo-module"
        d="M266.68,298.57a51.17,51.17,0,0,1-15,2.5A48.86,48.86,0,0,1,233,297.36a47.72,47.72,0,0,1-6.32-3.15A50.49,50.49,0,1,1,292,220a46.18,46.18,0,0,1,3.71,5.82,49.83,49.83,0,0,1,6.67,24.52,37.8,37.8,0,0,1-.45,4.16,49,49,0,0,1-3.35,14.89,50.56,50.56,0,0,1-17.31,21.91,51.72,51.72,0,0,1-14.6,7.23Zm0,0"
        transform="translate(-16.99 -15.68)" />
    <path class="logo-capture logo-module"
        d="M17,250.43a235,235,0,0,1,3.66-40.17l135.91-6.68L34.3,338.48A232.81,232.81,0,0,1,17,250.43Zm0,0"
        transform="translate(-16.99 -15.68)" />
    <path class="logo-capture logo-module"
        d="M436.49,106.1,342,210.41c-.74-1.76-1.59-3.46-2.45-5.17L330.87,29.71A235.54,235.54,0,0,1,436.49,106.1Zm0,0"
        transform="translate(-16.99 -15.68)" />
    <path class="logo-capture logo-module"
        d="M251.74,15.68a234.22,234.22,0,0,1,30.34,2.2l6.78,138.52L156.26,36.19a232.55,232.55,0,0,1,95.48-20.51Zm0,0"
        transform="translate(-16.99 -15.68)" />
    <path class="logo-capture logo-module" d="M112.68,61.72l100.25,90.87L34.65,161.31a236,236,0,0,1,78-99.59Zm0,0"
        transform="translate(-16.99 -15.68)" />
    <path class="logo-capture logo-module" d="M58.51,383.42l94.29-104L162,467.21A236.38,236.38,0,0,1,58.51,383.42Zm0,0"
        transform="translate(-16.99 -15.68)" />
    <path class="logo-capture logo-module"
        d="M251.74,485.12a233.19,233.19,0,0,1-40.83-3.81L203.8,336.78c.75.41,1.5.81,2.3,1.15L346.32,465.07a233.61,233.61,0,0,1-94.58,20.05Zm0,0"
        transform="translate(-16.99 -15.68)" />
    <path class="logo-capture logo-module"
        d="M390,439.64l-105.92-96a97.53,97.53,0,0,0,11.38-4.77l176.73-8.71A235.33,235.33,0,0,1,390,439.64Zm0,0"
        transform="translate(-16.99 -15.68)" />
</svg>