<svg id="Calque_4" data-name="Calque 4" xmlns="http://www.w3.org/2000/svg" viewBox="0 0 420.65 467.65">
	<defs>
		<style>
			.logo-formulaire {
			fill: #00a99d;
			}

			.cls-2 {
			fill: none;
			stroke: #00a99d;
			stroke-linecap: round;
			stroke-miterlimit: 10;
			stroke-width: 5.22px;
			}
		</style>
	</defs>
	<path class="logo-formulaire logo-module"
        d="M412.8,481.23H97.9A52.94,52.94,0,0,1,45,428.35V66.45A52.94,52.94,0,0,1,97.9,13.58H412.8a52.93,52.93,0,0,1,52.87,52.87v361.9A52.94,52.94,0,0,1,412.8,481.23ZM97.9,34.73A31.76,31.76,0,0,0,66.17,66.45v361.9A31.76,31.76,0,0,0,97.9,460.08H412.8a31.76,31.76,0,0,0,31.72-31.73V66.45A31.76,31.76,0,0,0,412.8,34.73Z"
        transform="translate(-45.02 -13.58)" />
	<path class="logo-formulaire logo-module"
        d="M187.2,166.33H121.4a10.58,10.58,0,0,1-10.58-10.58V90A10.58,10.58,0,0,1,121.4,79.38h65.8A10.57,10.57,0,0,1,197.77,90v65.8A10.58,10.58,0,0,1,187.2,166.33ZM132,145.18h44.65V100.53H132Z"
        transform="translate(-45.02 -13.58)" />
	<path class="logo-formulaire logo-module"
        d="M187.2,290.88H121.4a10.58,10.58,0,0,1-10.58-10.58V214.5a10.58,10.58,0,0,1,10.58-10.57h65.8a10.57,10.57,0,0,1,10.57,10.57v65.8A10.58,10.58,0,0,1,187.2,290.88ZM132,269.73h44.65V225.08H132Z"
        transform="translate(-45.02 -13.58)" />
	<path class="logo-formulaire logo-module"
        d="M187.2,415.43H121.4a10.58,10.58,0,0,1-10.58-10.58v-65.8a10.58,10.58,0,0,1,10.58-10.57h65.8a10.57,10.57,0,0,1,10.57,10.57v65.8A10.58,10.58,0,0,1,187.2,415.43ZM132,394.28h44.65V349.63H132Z"
        transform="translate(-45.02 -13.58)" />
	<path class="logo-formulaire logo-module" d="M389.3,100.53H253a10.58,10.58,0,1,1,0-21.15H389.3a10.58,10.58,0,0,1,0,21.15Z"
        transform="translate(-45.02 -13.58)" />
	<path class="logo-formulaire logo-module" d="M389.3,156.93H253a10.58,10.58,0,1,1,0-21.15H389.3a10.58,10.58,0,0,1,0,21.15Z"
        transform="translate(-45.02 -13.58)" />
	<path class="logo-formulaire logo-module" d="M389.3,229.78H321.15a10.58,10.58,0,1,1,0-21.15H389.3a10.58,10.58,0,0,1,0,21.15Z"
        transform="translate(-45.02 -13.58)" />
	<path class="logo-formulaire logo-module"
        d="M357.44,422.48a10.53,10.53,0,0,1-7.48-3.1l-48.67-48.67-16.76,16.76a10.58,10.58,0,0,1-17.76-5L239.6,270.27a10.57,10.57,0,0,1,12.77-12.76l112.21,27.16a10.58,10.58,0,0,1,5,17.76L352.8,319.19l48.68,48.68a10.57,10.57,0,0,1,0,14.95l-36.56,36.56A10.53,10.53,0,0,1,357.44,422.48Zm-56.15-77.3a10.56,10.56,0,0,1,7.48,3.09L357.44,397,379,375.34l-48.67-48.67a10.57,10.57,0,0,1,0-14.95l10.92-10.92-77.05-18.66,18.65,77.05,10.92-10.92A10.56,10.56,0,0,1,301.29,345.18Z"
        transform="translate(-45.02 -13.58)" />
	<polyline class="cls-2 logo-module" points="93.61 233.55 105.58 247.39 124.93 218.67" />
</svg>