<svg id="Calque_5" data-name="Calque 5" xmlns="http://www.w3.org/2000/svg" viewBox="0 0 418.79 467.39">
    <defs>
        <style>
            .logo-convocation,
            .cls-2 {
                fill: #e6541d;
            }

            .cls-2 {
                fill-rule: evenodd;
            }
        </style>
    </defs>
    <circle class="logo-convocation logo-module" cx="250" cy="250" r="144.75" transform="translate(-144.16 233.7) rotate(-45)" />
    <path class="cls-2 logo-module" d="M250,93.83a26.12,26.12,0,1,0-26.11-26.11A26.16,26.16,0,0,0,250,93.83Z"
        transform="translate(-40.61 -16.3)" />
    <path class="logo-convocation logo-module"
        d="M218.14,59.88a9.58,9.58,0,1,1-18.2-6,56.33,56.33,0,0,1,19.15-27.36,51.79,51.79,0,0,1,61.48-.2,56.17,56.17,0,0,1,19.21,26.87,9.62,9.62,0,1,1-18.2,6.25,36.85,36.85,0,0,0-12.52-17.7,32.67,32.67,0,0,0-38.39.13A37,37,0,0,0,218.14,59.88Z"
        transform="translate(-40.61 -16.3)" />
    <path class="cls-2 logo-module" d="M430.45,145.77a26.11,26.11,0,1,1-35.67-9.56A26.1,26.1,0,0,1,430.45,145.77Z"
        transform="translate(-40.61 -16.3)" />
    <path class="logo-convocation logo-module"
        d="M398.72,127.35a9.58,9.58,0,0,1-3.89-18.77,56.23,56.23,0,0,1,33.26,2.91A51.8,51.8,0,0,1,459,164.63a56.15,56.15,0,0,1-13.67,30.08,9.63,9.63,0,1,1-14.51-12.65,36.85,36.85,0,0,0,9.07-19.69,32.67,32.67,0,0,0-19.3-33.18A37,37,0,0,0,398.72,127.35Z"
        transform="translate(-40.61 -16.3)" />
    <path class="cls-2 logo-module" d="M430.5,354.16a26.11,26.11,0,1,1-9.56-35.67A26.11,26.11,0,0,1,430.5,354.16Z"
        transform="translate(-40.61 -16.3)" />
    <path class="logo-convocation logo-module"
        d="M430.58,317.47a9.59,9.59,0,1,1,14.31-12.76A56.28,56.28,0,0,1,459,335a51.8,51.8,0,0,1-30.56,53.34,56.17,56.17,0,0,1-32.88,3.2,9.62,9.62,0,1,1,3.69-18.88,36.9,36.9,0,0,0,21.59-2,32.68,32.68,0,0,0,19.08-33.31A37.07,37.07,0,0,0,430.58,317.47Z"
        transform="translate(-40.61 -16.3)" />
    <path class="cls-2 logo-module" d="M69.55,354.23a26.11,26.11,0,1,1,35.67,9.56A26.1,26.1,0,0,1,69.55,354.23Z"
        transform="translate(-40.61 -16.3)" />
    <path class="logo-convocation logo-module"
        d="M101.28,372.65a9.58,9.58,0,1,1,3.89,18.77,56.23,56.23,0,0,1-33.26-2.91A51.8,51.8,0,0,1,41,335.37a56.15,56.15,0,0,1,13.67-30.08,9.63,9.63,0,0,1,14.51,12.65,36.85,36.85,0,0,0-9.07,19.69,32.67,32.67,0,0,0,19.3,33.18A37,37,0,0,0,101.28,372.65Z"
        transform="translate(-40.61 -16.3)" />
    <path class="cls-2 logo-module" d="M69.5,145.84a26.11,26.11,0,1,1,9.56,35.67A26.11,26.11,0,0,1,69.5,145.84Z"
        transform="translate(-40.61 -16.3)" />
    <path class="logo-convocation logo-module"
        d="M69.42,182.53a9.59,9.59,0,1,1-14.31,12.76A56.28,56.28,0,0,1,41,165a51.8,51.8,0,0,1,30.56-53.34,56.2,56.2,0,0,1,32.89-3.2,9.62,9.62,0,1,1-3.7,18.88,36.9,36.9,0,0,0-21.59,2,32.68,32.68,0,0,0-19.08,33.31A37.07,37.07,0,0,0,69.42,182.53Z"
        transform="translate(-40.61 -16.3)" />
    <path class="cls-2 logo-module" d="M250,458.4a26.12,26.12,0,1,1,26.11-26.12A26.12,26.12,0,0,1,250,458.4Z"
        transform="translate(-40.61 -16.3)" />
    <path class="logo-convocation logo-module"
        d="M281.86,440.12a9.58,9.58,0,1,1,18.2,6,56.33,56.33,0,0,1-19.15,27.36,51.79,51.79,0,0,1-61.48.2,56.17,56.17,0,0,1-19.21-26.87,9.62,9.62,0,1,1,18.2-6.25,36.85,36.85,0,0,0,12.52,17.7,32.67,32.67,0,0,0,38.39-.13A37,37,0,0,0,281.86,440.12Z"
        transform="translate(-40.61 -16.3)" />
</svg>