<svg width="24" height="24" viewBox="0 0 24 24" fill="none" xmlns="http://www.w3.org/2000/svg">
<path fill-rule="evenodd" clip-rule="evenodd" d="M0 21.6124V10.1454C0 9.55513 0.536294 9.07182 1.19124 9.07182H6.26261C6.38126 8.70731 6.46669 8.33139 6.52205 7.94503H2.76903L2.3693 7.35336C3.18351 5.92907 3.18034 4.69535 2.70944 3.61989C2.22534 2.51448 1.24767 1.55355 0.143961 0.715236L0.432411 0H8.34769L8.55914 0.0489509C8.95096 0.237143 9.31429 0.437692 9.64756 0.649171C10.6511 1.28694 11.422 2.04305 11.8993 2.87898H14.4031L14.7885 3.07574C15.7351 4.4891 16.0715 5.84067 15.974 7.14758H22.1991L22.6442 7.50305C22.8151 8.71444 22.7623 9.84217 22.4939 10.8886C22.3431 11.4765 22.1253 12.0383 21.8411 12.5748H20.8318C21.1867 11.9869 21.4493 11.3653 21.618 10.7081C21.8369 9.85406 21.898 8.93827 21.7973 7.96024H10.0657C10.1512 8.94636 9.99297 9.80653 9.68131 10.5883C9.39181 11.3145 8.97415 11.9622 8.49955 12.5748H7.73545L7.72912 12.5757H7.69959L7.69379 12.5767H7.67586L7.66953 12.5776H7.65213L7.64581 12.5786H7.63262L7.6284 12.5796H7.6168L7.611 12.5805H7.5994L7.582 12.5819H7.57619L7.56987 12.5829H7.56407L7.55827 12.5838H7.54667L7.54087 12.5848H7.53507L7.52874 12.5857H7.52293L7.51661 12.5867H7.5108L7.49921 12.5881H7.49341L7.48761 12.5891H7.48181L7.47601 12.59H7.4702L7.46441 12.591H7.4586L7.4528 12.5919H7.447L7.4412 12.5929H7.43487L7.42907 12.5938C6.63543 12.6703 5.87238 12.9778 5.23694 13.4041C4.49129 13.905 3.87379 14.6003 3.5711 15.3977L0.824222 22.6332C0.347511 22.493 0.000527848 22.0876 0.000527848 21.6129L0 21.6124ZM11.2918 9.63783L11.3746 8.90216H20.721L20.6383 9.63783H11.2918ZM20.3714 10.4657L20.0956 11.2014H10.7492L11.0255 10.4657H20.3714ZM23.884 15.4562L20.6403 24H1.73334L4.84988 15.7917C5.0566 15.2466 5.49903 14.7466 6.04429 14.3802C6.58376 14.0181 7.21497 13.7928 7.80717 13.7928H22.7138C22.9147 13.7928 23.094 13.8185 23.2491 13.8665C23.4864 13.9397 23.6741 14.0666 23.8007 14.2315C23.9299 14.4002 24 14.6174 24 14.8673C24 15.0503 23.9625 15.249 23.8834 15.4566L23.884 15.4562ZM6.48778 2.87946L6.05326 3.38702L6.05273 3.38655C6.43452 4.70818 6.6349 5.96424 6.59272 7.13332H3.46986C4.1074 5.71379 4.03937 4.45155 3.54632 3.32524C3.13552 2.3876 2.42942 1.55545 1.59413 0.812175H8.23694C8.55071 0.967103 8.84918 1.13439 9.12972 1.3126C9.86113 1.77739 10.4491 2.30633 10.862 2.87946H6.48778ZM6.70609 10.3136C7.18386 9.38024 7.43013 8.36941 7.48549 7.29538H7.48602C7.54455 6.1586 7.38688 4.95198 7.06204 3.69165H14.1462C14.8961 4.88545 15.1608 6.02079 15.0759 7.11336L15.0733 7.14805H9.56424L9.11917 7.61141C9.28423 8.65124 9.14976 9.53043 8.83811 10.3136H6.70609ZM8.45368 6.81539H13.9132L13.9617 6.38577H8.50219L8.45368 6.81539ZM8.537 5.81169H13.9965L13.9369 5.38207H8.47741L8.537 5.81169ZM13.8915 4.84695L13.7597 4.41734H8.30023L8.43206 4.84695H13.8915Z" fill="#1F4F79"/>
</svg>
