<?xml version="1.0" encoding="utf-8"?>
<!-- Generator: Adobe Illustrator 26.0.3, SVG Export Plug-In . SVG Version: 6.00 Build 0)  -->
<svg version="1.1" xmlns="http://www.w3.org/2000/svg" xmlns:xlink="http://www.w3.org/1999/xlink" x="0px" y="0px"
	 viewBox="0 0 295 284" style="enable-background:new 0 0 295 284;" xml:space="preserve">
<style type="text/css">
	.st0{display:none;fill:#9D1C7F;}
	.logo-parapheur
	{
		fill:#9d1b7f;
	}
</style>
<g id="Calque_5">
</g>
<g id="Calque_6">
	<rect x="-27.8" y="-30.1" class="st0" width="342.7" height="342.7" />
	<path class="logo-parapheur logo-module" d="M205.3,109.4l39.3,15.1l-32.7,93c-3.1,8.7-19.7,36.1-31.2,41.6l-2.8,8c-0.8,2-2.6,3.3-4.5,3.3
		c-0.5,0-1.1-0.1-1.6-0.3c-2.5-0.9-3.7-3.8-2.8-6.4l2.6-7.6c-5.9-11.8-1.5-46.4,1.1-53.7L205.3,109.4z M262.1,11.1
		C251.3,7,238.7,15.5,235,25.8l-23.6,67.3l39.3,15.1l23.6-67.4C277.3,32.4,273,15.2,262.1,11.1L262.1,11.1z M191,105.9
		c1.1,0.4,2.2,0.6,3.3,0.6c3.9,0,7.6-2.5,9-6.5l25-70.3c1.8-5.2-0.7-11-5.7-12.8c-5-1.9-10.5,0.7-12.3,5.9l-25,70.4
		C183.5,98.3,186.1,104,191,105.9L191,105.9z M150.8,237.9c-2.6-2.5-5.8-5.7-11-8.2c-4.3-2-8.5-2.1-11.5-2.1c-0.3,0-0.6-0.1-1-0.1
		c-1.9-5.5-5.8-8.9-11.5-10.2c-7.7-1.7-13.8,2.1-18.1,5c0.4-2.2,1-4.9,1.4-6.8c1.5-6.2,3-12.6,1.9-18.6c-0.9-4.7-4.7-8.2-9.4-8.6
		c-11.8-0.7-21.6,6-30.1,12c-9,6.3-14.7,10.1-20.5,8c-7-2.6-7.7-22.4-4.3-40c3-15.9,8.6-45.4,23-58.8c4.8-4.5,11.8-9.4,17.6-7
		c6.8,2.8,12.3,14.4,13.6,28.2c0.5,5.9,5.4,10.1,11.1,9.6c5.6-0.5,9.7-5.7,9.2-11.6c-2-22.6-12.2-40.2-26.4-46.1
		c-8.6-3.5-22.2-4.4-38.7,11c-17.9,16.8-24.5,45.2-29.4,70.5c-2.4,12.6-8.3,54.6,17.5,64.2c15.7,5.8,28.5-3.2,38.7-10.4
		c1.8-1.4,3.7-2.6,5.5-3.8c-1.7,7.7-2.7,16,1.7,22.9c6.6,10.5,16,11.6,27.9,3.4c0.4-0.3,1-0.7,1.5-1c1.1,2.4,3,5.1,6.6,6.9
		c4.3,2.2,8.6,2.3,11.7,2.4c1.4,0.1,3.2,0.1,3.7,0.4c1.9,0.9,3,1.9,5.2,4.1c1.6,1.7,3.4,3.3,5.6,5.1c1.8,1.4,4,2.1,6.1,2.1
		c3.1,0,6.2-1.5,8.2-4.3c3.4-4.7,2.5-11.4-2-14.9C153.1,240.2,151.9,239,150.8,237.9L150.8,237.9z M150.8,237.9" />
</g>
</svg>