<svg id="Calque_1" data-name="Calque 1" xmlns="http://www.w3.org/2000/svg" viewBox="0 0 485.54 398.1">
    <defs>
        <style>
			.logo-courrier {
			fill: none;
			stroke: #e2131c;
			stroke-miterlimit: 10;
			stroke-width: 35px;
			}

			.logo-courrier-2 {
			fill: #e2131c;
			}
		</style>
    </defs>
    <path class="logo-courrier logo-module-stroke"
        d="M61.58,432l392.09-30.42a26.13,26.13,0,0,0,26.13-26.14V176.74a26.13,26.13,0,0,0-26.13-26.14L54.92,68.85c-14.43,0-25.66,3.63-25.66,18.06V405.34C29.26,419.77,47.14,432,61.58,432Z"
        transform="translate(-11.76 -51.35)" />
    <path class="logo-courrier-2 logo-module"
        d="M24.76,84.61l6,6.16L47,107.54l24.07,24.8,29.18,30.08,32.13,33.11L164.82,229l30.08,31,25.56,26.34,18.36,18.92,8.65,8.92.38.39a18,18,0,0,0,12.38,5.13c4.29,0,9.42-1.91,12.37-5.13s5.33-7.71,5.13-12.37a18.47,18.47,0,0,0-5.13-12.38l-6-6.16-16.27-16.77L226.29,242,197.1,212,165,178.85l-32.43-33.42-30.08-31L76.91,88.09,58.54,69.17l-8.65-8.92-.38-.39a17.49,17.49,0,0,0-24.75,0c-3.06,3.33-5.33,7.71-5.12,12.37a18.49,18.49,0,0,0,5.12,12.38Z"
        transform="translate(-11.76 -51.35)" />
    <path class="logo-courrier-2 logo-module"
        d="M317.27,315.56l4.34-3.48,11.82-9.47,17.47-14,21.31-17.1,23.36-18.74,23.57-18.91,22-17.64,18.58-14.91,13.37-10.73c2.12-1.7,4.26-3.37,6.35-5.09l.28-.22a13.13,13.13,0,0,0,3.61-5.63,13.18,13.18,0,0,0,1.51-6.75c0-4.29-1.91-9.42-5.12-12.37s-7.72-5.34-12.38-5.13l-4.65.63a17.4,17.4,0,0,0-7.72,4.5L450.62,164l-11.81,9.48-17.47,14L400,204.58l-23.36,18.73-23.57,18.92-22,17.64-18.58,14.91L299.15,285.5c-2.12,1.7-4.25,3.37-6.35,5.09l-.27.23a19.47,19.47,0,0,0-5.13,12.37c0,4.29,1.91,9.42,5.13,12.37s7.71,5.34,12.37,5.13l4.65-.63a17.4,17.4,0,0,0,7.72-4.5Z"
        transform="translate(-11.76 -51.35)" />
    <path class="logo-courrier-2 logo-module"
        d="M260.23,319.65l15.1.35,24.07.56,5.5.13a17.87,17.87,0,0,0,12.37-5.13,19.47,19.47,0,0,0,5.13-12.37c-.2-4.53-1.69-9.22-5.13-12.37a18.47,18.47,0,0,0-12.37-5.13l-15.11-.35-24.06-.56-5.5-.13a17.91,17.91,0,0,0-12.38,5.12,19.45,19.45,0,0,0-5.12,12.38c.2,4.52,1.69,9.22,5.12,12.37a18.51,18.51,0,0,0,12.38,5.13Z"
        transform="translate(-11.76 -51.35)" />
</svg>