<svg id="Calque_7" data-name="Calque 7" xmlns="http://www.w3.org/2000/svg" viewBox="0 0 471.74 373.03">
    <defs>
        <style>
            .logo-actes {
                fill: #f9b909;
            }
        </style>
    </defs>
    <path class="logo-actes logo-module" d="M243.66,369.64s-54.58,30.8-68.68,65.95H389s-19.11-53.44-16.1-65.95"
        transform="translate(-16.13 -62.56)" />
    <path class="logo-actes logo-module"
        d="M217.43,218.19s-28.51,12.38-46-14.52c0,0-22.59-27.17-70.47-2.15,0,0-14.52,4.84-34.69,39,0,0-28.52,25.55-46.81,30.93a29.64,29.64,0,0,0,11.84,0s-12.37,10.76-10.49,22.32c0,0,23.13-30.12,53.79-30.12,0,0,7.54,18.83-15.87,36.85,0,0-16.4,15.06-30.39,15.87s-12.13,13.18-12.13,13.18,27.19,3.76,45.21-10.22c0,0,.27,14.79-14.52,20.17s-18,28-18,28,15.87-16.67,35.23-10.76c0,0,5.92,4.58,1.35,10.76s-3,26.36,21.79,30.93c0,0-14.26-64.28,48.68-41.95,0,0-15.87,20.44-3,33.08,0,0-4-22.59,25.55-23.4s40.35-16.41,40.35-16.41,48.41-10.22,61.32-50.83c0,0-1.61-27.17,10.76-30.13"
        transform="translate(-16.13 -62.56)" />
    <path class="logo-actes logo-module"
        d="M485.67,253.83S463.31,224,464.2,217.63c0,0-.63-3.92,1.21-12.2,0,0-.41-24.86-12.73-53.58,0,0-1.54-4,5.17-7.89s2.55-10.69.94-12.19-3.14-.48-3.9.67-2.93,3.82-3.82,3.82-3.55,1.5-.15-2.94-3.86-2-3.86-2-7.07-13.18-20.83-15.28-5-3.44-5-3.44l5.25.21s16.56,1.9,17.31-5.75,5.22-14.48-14-25.3c0,0-90.39-43.71-161.17.66,0,0-24.39,6.24-32.94,34.35,0,0-18.69,8.25-31.71,49.78,0,0-.62,26.94,8.59,48,0,0,2.86,6.49.94,8.54,0,0-.35,8.12,4.35,9.29,0,0-.48,4.46,2,4,0,0-2,2.9,7,10.76,0,0,24,24.67,25.9,34.22,0,0,19.89,48.21-11.64,91.36H371.85s10.27-33.27,31.56-34.61a208.77,208.77,0,0,1,33.65,4.62s29.26,8.59,30.33-19.71c0,0-5.5-8.52,1.19-12.16,0,0,7-4.15,3.41-9.38,0,0-2.32-5.6-7.29-5.22,0,0,13.83-5.91,10-12.32s-4.33-11.39.68-12.79C475.35,271.13,494.16,269.89,485.67,253.83Zm-34-42.57c-.66,1.32,2,2,2,3.31-.66,1.32-2.64,2-4,2-1.32.66-2.64,2.64-4,4,1.32,0,0,2,1.32,2-2.64,3.31,1.32,9.91-2.64,11.23a29.6,29.6,0,0,1-15.19,0c2.64-.66,5.94.66,7.92-2V229.1c0-.66-.66-.66-1.32-.66a2,2,0,0,1-1.32.66,3,3,0,0,0-2-2.64c-4,.66-7.27-1.33-9.91-4,2-.66,4-1.32,6-.66,2,0,1.32-3.3,3.3-4.62h2c4-5.29,11.89-6.61,13.21-11.89,0-1.32-4-1.32-6.61-2-3.89-1-7.26,0-11.22,0-5.29,1.32-9.91,2-14.53,4,4-2.64,7.92-5.29,12.55-6.61,3.3-.66,6.6-2.64,9.9-2.64,4-.66,7.93-2,11.23-.66s8.59,1.32,9.25,3.3C458.92,204.66,455.62,208.62,451.65,211.26Z"
        transform="translate(-16.13 -62.56)" />
</svg>