<svg id="Calque_6" data-name="Calque 6" xmlns="http://www.w3.org/2000/svg" viewBox="0 0 463.49 485.1">
    <defs>
        <style>
            .logo-chorus,
            .logo-chorus-2 {
                fill: #483285;
            }

        </style>
    </defs>
    <path class="logo-chorus logo-module"
        d="M463.5,10.05V398.94a4.72,4.72,0,0,1-2.6,4.21L287.3,490a4.71,4.71,0,0,1-6.81-4.2v-79.2a4.69,4.69,0,0,0-4.68-4.7H102.2a4.69,4.69,0,0,1-4.7-4.68V284.55a4.69,4.69,0,0,1,4.68-4.7h21.11a4.69,4.69,0,0,1,4.7,4.68v82.12a4.72,4.72,0,0,0,4.7,4.7h143.1a4.69,4.69,0,0,0,4.7-4.7h0V99.75a4.69,4.69,0,0,1,2.6-4.2l101.6-50.8a4.7,4.7,0,0,0-2.11-8.9H132.69a4.69,4.69,0,0,0-4.7,4.7v112.6a4.69,4.69,0,0,1-4.7,4.7H102.2a4.69,4.69,0,0,1-4.7-4.7V10.05a4.69,4.69,0,0,1,4.68-4.7H458.8A4.69,4.69,0,0,1,463.5,10.05Z"
        transform="translate(-0.01 -5.35)" />
    <path class="logo-chorus-2 logo-module"
        d="M253.19,212.4a522.79,522.79,0,0,1-105.14-54.32c-1.87-1.26-5.37-.75-5.52,2.06-.95,17.83,4.27,37.78,3.32,55.61C81.23,192.59,29.34,128,27.41,59.15c-.08-2.94-4.33-4.19-6-1.85C-6.53,95.38-5.13,147.42,17.72,187.65,44,233.84,94.56,259.91,144.79,271.12l1.13.26a.11.11,0,0,1,.08.08c1.4,16.46-1,35.78.66,52.21.3,3.05,5.87,2.84,7.83.87,33.71-34,68.15-71.12,99.93-106.88a3.42,3.42,0,0,0-.53-4.82A3.17,3.17,0,0,0,253.19,212.4Z"
        transform="translate(-0.01 -5.35)" />
</svg>